<?xml version="1.0" standalone="no"?>
<!DOCTYPE svg PUBLIC "-//W3C//DTD SVG 20010904//EN"
 "http://www.w3.org/TR/2001/REC-SVG-20010904/DTD/svg10.dtd">
<svg version="1.0" xmlns="http://www.w3.org/2000/svg"
 width="2048.000000pt" height="2048.000000pt" viewBox="0 0 2048.000000 2048.000000"
 preserveAspectRatio="xMidYMid meet">
<metadata>
Created by potrace 1.11, written by Peter Selinger 2001-2013
</metadata>
<g transform="translate(0.000000,2048.000000) scale(0.100000,-0.100000)"
fill="#000000" stroke="none">
<path d="M9868 19795 c-1 -1 -68 -6 -148 -9 -80 -4 -158 -9 -175 -11 -16 -2
-68 -7 -115 -10 -47 -3 -98 -8 -115 -10 -16 -2 -59 -7 -95 -10 -83 -8 -148
-15 -180 -20 -14 -2 -79 -11 -145 -20 -66 -9 -142 -20 -170 -25 -27 -5 -66
-12 -85 -14 -41 -7 -76 -13 -145 -26 -27 -5 -61 -11 -75 -14 -53 -9 -238 -48
-290 -61 -30 -8 -66 -16 -80 -19 -35 -7 -173 -41 -245 -61 -33 -8 -70 -18 -81
-20 -65 -15 -473 -142 -619 -193 -794 -278 -1555 -660 -2215 -1111 -41 -28
-82 -56 -90 -61 -37 -25 -289 -207 -318 -230 -17 -14 -52 -41 -77 -60 -56 -42
-265 -210 -316 -254 -19 -17 -57 -49 -84 -71 -27 -22 -55 -47 -64 -55 -9 -9
-61 -56 -116 -105 -55 -49 -210 -200 -345 -335 -238 -237 -324 -330 -496 -529
-16 -19 -34 -39 -39 -45 -6 -6 -49 -58 -95 -116 -47 -58 -87 -107 -90 -110 -3
-3 -21 -25 -40 -50 -19 -25 -37 -47 -40 -50 -3 -3 -52 -68 -108 -145 -57 -77
-109 -147 -115 -156 -34 -45 -205 -299 -289 -429 -201 -312 -432 -735 -598
-1090 -59 -127 -180 -406 -180 -416 0 -2 -9 -23 -19 -47 -27 -59 -110 -275
-122 -317 -6 -19 -16 -48 -23 -65 -13 -29 -75 -216 -134 -405 -25 -79 -79
-268 -86 -305 -2 -5 -8 -28 -14 -50 -33 -110 -131 -552 -156 -705 -3 -19 -8
-46 -11 -60 -8 -41 -24 -132 -30 -175 -3 -22 -10 -67 -15 -100 -5 -33 -11 -82
-15 -110 -3 -27 -8 -61 -10 -75 -2 -14 -6 -52 -10 -85 -3 -33 -8 -71 -10 -85
-3 -14 -7 -54 -10 -90 -2 -36 -7 -92 -10 -125 -24 -269 -30 -438 -30 -815 0
-324 8 -617 20 -705 2 -16 6 -68 10 -115 3 -47 7 -96 9 -110 3 -14 7 -57 10
-95 4 -39 8 -81 10 -95 3 -14 7 -52 11 -85 3 -33 9 -76 12 -95 3 -19 6 -44 8
-55 11 -90 60 -378 89 -525 45 -234 113 -512 198 -810 56 -197 231 -711 278
-815 5 -11 36 -85 69 -165 111 -270 355 -780 440 -920 11 -19 24 -42 28 -50
15 -31 186 -323 244 -417 144 -229 354 -536 479 -698 26 -33 63 -82 84 -109
65 -85 278 -345 338 -411 14 -16 35 -40 46 -53 141 -163 466 -499 626 -647
114 -105 152 -140 221 -201 193 -172 555 -463 705 -566 14 -10 43 -31 65 -48
22 -16 47 -33 55 -37 8 -3 17 -10 20 -14 18 -25 571 -377 746 -475 251 -141
566 -302 759 -389 135 -62 306 -135 395 -170 52 -20 104 -41 115 -46 42 -19
325 -121 430 -155 61 -19 119 -39 130 -44 46 -19 527 -155 589 -166 16 -3 32
-7 36 -9 4 -2 38 -11 76 -19 38 -8 111 -24 162 -36 122 -27 434 -87 497 -96
28 -3 59 -8 70 -10 11 -3 40 -7 65 -10 25 -2 52 -6 60 -9 8 -2 44 -7 80 -10
36 -3 72 -8 80 -10 8 -2 40 -7 70 -10 30 -3 78 -8 105 -11 53 -7 57 -7 200
-19 50 -4 106 -8 125 -10 302 -27 1105 -27 1405 0 22 2 74 6 115 10 41 4 86 8
100 10 14 2 57 6 95 10 39 3 102 10 140 15 39 5 93 12 120 15 68 9 89 12 165
24 36 5 85 13 110 16 25 3 52 8 60 10 8 2 31 7 50 10 31 5 214 40 265 51 11 2
56 11 100 20 44 9 175 40 290 69 1268 319 2397 859 3445 1648 158 118 494 392
566 461 6 6 47 42 90 81 94 83 546 533 628 625 32 36 75 83 95 105 20 22 63
72 96 110 33 39 63 72 66 75 14 12 261 323 315 395 32 44 61 82 65 85 14 12
229 321 229 329 0 5 3 11 8 13 11 5 215 317 277 426 6 9 46 80 91 157 158 273
333 616 457 896 74 166 200 481 247 614 76 219 122 355 140 415 11 36 31 103
45 150 15 47 28 92 30 100 1 8 20 77 40 154 20 76 38 147 40 158 2 11 7 28 10
38 3 10 8 27 10 37 2 10 15 70 29 133 14 63 27 126 29 140 3 14 8 36 11 50 12
53 92 523 100 595 12 99 17 141 21 170 4 29 11 98 20 180 2 22 7 78 10 125 4
47 8 101 10 120 27 269 27 1123 0 1390 -2 19 -6 73 -10 120 -3 47 -8 99 -10
116 -2 16 -6 59 -10 95 -3 35 -8 75 -10 89 -2 14 -7 53 -10 87 -3 34 -8 70
-10 81 -2 11 -6 42 -10 69 -4 26 -9 62 -12 78 -2 17 -6 46 -9 65 -4 33 -18
117 -29 170 -3 14 -9 50 -15 80 -5 30 -12 66 -14 80 -3 14 -11 50 -17 80 -5
30 -12 66 -15 80 -3 14 -12 54 -20 90 -9 36 -17 72 -19 80 -13 64 -60 254 -70
290 -8 25 -32 113 -55 195 -186 671 -507 1434 -877 2085 -254 445 -537 862
-857 1260 -128 159 -119 149 -260 309 -66 75 -129 147 -140 161 -42 50 -553
558 -635 630 -46 41 -89 80 -95 85 -6 6 -42 37 -81 70 -38 33 -72 63 -75 66
-7 7 -218 178 -259 209 -18 14 -38 30 -44 36 -66 60 -506 372 -707 501 -136
87 -427 263 -435 263 -3 0 -26 13 -52 29 -138 83 -566 299 -798 401 -604 267
-1314 497 -1895 614 -216 43 -527 98 -640 112 -60 7 -63 8 -130 17 -25 4 -65
9 -90 11 -25 3 -65 8 -90 10 -175 20 -194 21 -345 31 -60 4 -126 9 -145 11
-40 6 -916 14 -922 9z m882 -1288 c25 -3 88 -8 140 -12 222 -17 381 -34 540
-60 14 -2 47 -6 74 -10 54 -7 245 -39 316 -54 25 -5 83 -16 130 -26 138 -27
502 -120 680 -174 1035 -313 1972 -807 2810 -1482 80 -64 154 -125 165 -136
11 -10 54 -47 95 -83 70 -60 109 -96 214 -194 146 -137 353 -347 476 -485 41
-46 86 -96 100 -111 133 -146 413 -503 541 -690 24 -36 46 -67 49 -70 4 -3 29
-41 57 -85 29 -44 56 -84 60 -90 16 -19 181 -290 241 -395 90 -160 116 -206
195 -362 65 -129 100 -201 195 -408 69 -150 200 -491 273 -710 65 -196 162
-522 183 -620 3 -14 19 -83 36 -154 17 -71 32 -138 34 -150 8 -38 35 -181 40
-209 3 -15 10 -53 15 -85 19 -104 37 -221 46 -301 4 -30 8 -62 10 -72 4 -21
16 -138 29 -284 4 -38 9 -88 11 -110 26 -253 27 -1092 0 -1305 -2 -19 -7 -69
-10 -110 -3 -41 -8 -93 -11 -115 -2 -22 -7 -60 -10 -85 -5 -48 -22 -181 -30
-240 -9 -62 -36 -220 -54 -320 -6 -33 -13 -72 -16 -87 -3 -16 -19 -89 -35
-163 -17 -74 -32 -144 -34 -155 -44 -212 -235 -831 -316 -1022 -5 -13 -13 -33
-19 -45 -5 -13 -34 -85 -65 -162 -237 -592 -596 -1227 -1004 -1776 -280 -377
-662 -805 -992 -1111 -115 -107 -213 -195 -284 -254 -44 -37 -92 -77 -106 -90
-97 -84 -423 -331 -579 -438 -123 -84 -320 -211 -430 -277 -126 -76 -166 -99
-330 -188 -182 -98 -386 -198 -585 -287 -33 -14 -69 -30 -80 -35 -125 -58
-463 -185 -689 -259 -166 -55 -495 -150 -566 -165 -14 -3 -34 -7 -45 -10 -114
-29 -494 -108 -580 -121 -23 -3 -52 -8 -65 -10 -14 -3 -43 -7 -65 -10 -48 -6
-111 -15 -145 -20 -101 -16 -213 -28 -355 -40 -44 -4 -91 -8 -105 -10 -178
-26 -1174 -26 -1310 0 -8 1 -53 6 -100 10 -47 3 -98 8 -115 10 -16 2 -55 6
-85 9 -30 3 -71 7 -90 10 -19 3 -98 15 -175 26 -77 11 -150 22 -161 24 -12 2
-37 7 -55 10 -329 56 -746 158 -1079 265 -139 44 -324 107 -355 121 -11 4 -69
27 -130 51 -103 40 -283 113 -350 144 -105 47 -370 173 -420 200 -33 18 -109
58 -168 89 -190 100 -466 266 -625 375 -29 20 -60 41 -69 46 -111 67 -487 350
-678 511 -362 305 -761 701 -1016 1008 -13 16 -38 46 -55 65 -237 275 -625
835 -814 1176 -12 22 -43 76 -68 120 -108 190 -308 609 -402 840 -18 44 -38
94 -45 110 -43 97 -211 594 -260 765 -68 241 -147 583 -190 825 -11 60 -54
352 -64 440 -12 92 -15 118 -25 240 -4 39 -9 93 -11 120 -27 306 -27 1032 0
1295 1 19 6 69 9 110 4 41 8 89 10 105 2 17 7 59 10 95 4 36 8 75 10 87 3 12
7 48 11 80 3 32 8 65 10 73 2 8 6 35 9 60 3 25 8 55 10 66 2 12 7 39 10 60 7
40 22 130 31 174 3 14 9 48 15 75 14 73 36 176 65 295 14 58 27 114 30 125 23
97 98 354 147 505 179 548 397 1042 687 1555 39 68 165 279 173 290 5 6 39 57
76 115 106 167 379 551 412 580 3 3 21 25 40 50 19 25 42 54 52 65 9 11 33 40
53 65 32 38 85 101 145 170 101 116 191 211 385 405 126 127 250 249 275 271
66 59 201 177 234 205 16 13 46 38 65 55 38 32 270 216 312 247 13 9 60 43
104 75 199 145 529 362 675 444 25 14 77 43 115 65 190 109 494 263 675 343
52 23 114 50 137 61 185 83 846 321 954 343 13 3 56 14 94 25 291 82 612 152
905 197 161 25 228 34 275 39 17 2 51 6 78 9 79 10 128 15 207 21 41 4 91 8
110 11 19 2 96 6 170 10 74 3 137 8 138 9 6 5 791 -3 842 -8z"/>
<path d="M5337 15122 l-127 -127 1838 -1838 1837 -1837 128 128 127 127 -1838
1838 -1837 1837 -128 -128z"/>
<path d="M9330 7130 l0 -4000 910 0 910 0 0 3100 0 3100 1425 0 1425 0 0 900
0 900 -2335 0 -2335 0 0 -4000z"/>
</g>
</svg>
